<svg width="18" height="19" viewBox="0 0 18 19" fill="none" xmlns="http://www.w3.org/2000/svg">
<g clip-path="url(#clip0_4_92)">
<path d="M15.9606 14.318C15.6997 14.9206 15.3909 15.4754 15.0332 15.9854C14.5455 16.6807 14.1462 17.162 13.8385 17.4293C13.3615 17.868 12.8504 18.0926 12.3031 18.1054C11.9102 18.1054 11.4363 17.9936 10.8848 17.7668C10.3314 17.5411 9.82288 17.4293 9.35788 17.4293C8.87021 17.4293 8.34719 17.5411 7.78776 17.7668C7.22747 17.9936 6.77611 18.1118 6.43101 18.1235C5.90618 18.1459 5.38305 17.9148 4.86088 17.4293C4.52761 17.1386 4.11074 16.6403 3.61136 15.9343C3.07556 15.1805 2.63506 14.3063 2.28997 13.3096C1.92038 12.2331 1.73511 11.1907 1.73511 10.1815C1.73511 9.02548 1.98491 8.02842 2.48525 7.19288C2.87847 6.52175 3.4016 5.99234 4.05633 5.6037C4.71107 5.21505 5.41851 5.017 6.18036 5.00433C6.59722 5.00433 7.14388 5.13328 7.82321 5.3867C8.50063 5.64097 8.93559 5.76991 9.12629 5.76991C9.26887 5.76991 9.75207 5.61914 10.5712 5.31855C11.3458 5.03979 11.9996 4.92437 12.5352 4.96983C13.9865 5.08696 15.0768 5.65907 15.8019 6.68977C14.504 7.47622 13.8619 8.57774 13.8747 9.99081C13.8864 11.0915 14.2857 12.0074 15.0704 12.7346C15.4261 13.0722 15.8232 13.3331 16.2651 13.5183C16.1693 13.7962 16.0681 14.0624 15.9606 14.318ZM12.6321 1.2201C12.6321 2.08279 12.3169 2.88829 11.6887 3.63385C10.9306 4.52018 10.0136 5.03234 9.01918 4.95152C9.00651 4.84802 8.99916 4.73909 8.99916 4.62463C8.99916 3.79644 9.35969 2.91012 9.99995 2.18543C10.3196 1.81851 10.7261 1.51341 11.2191 1.27004C11.7111 1.03029 12.1764 0.897705 12.614 0.875C12.6268 0.990329 12.6321 1.10567 12.6321 1.22009V1.2201Z" fill="#212529"/>
</g>
<defs>
<clipPath id="clip0_4_92">
<rect width="18" height="18" fill="white" transform="translate(0 0.5)"/>
</clipPath>
</defs>
</svg>
