<svg width="18" height="19" viewBox="0 0 18 19" fill="none" xmlns="http://www.w3.org/2000/svg">
<mask id="mask0_4_52" style="mask-type:luminance" maskUnits="userSpaceOnUse" x="0" y="4" width="7" height="11">
<path d="M0.566284 4.39978H6.45543V14.5998H0.566284V4.39978Z" fill="white"/>
</mask>
<g mask="url(#mask0_4_52)">
<mask id="mask1_4_52" style="mask-type:luminance" maskUnits="userSpaceOnUse" x="0" y="0" width="18" height="19">
<path d="M17.2224 7.93196H9.18872V11.2628H13.813C13.3819 13.3788 11.5792 14.5936 9.18872 14.5936C6.36712 14.5936 4.09415 12.3208 4.09415 9.49937C4.09415 6.67801 6.36712 4.40523 9.18872 4.40523C10.4036 4.40523 11.5009 4.83629 12.363 5.54162L14.8711 3.03376C13.3427 1.70143 11.3833 0.87854 9.18872 0.87854C4.40765 0.87854 0.567139 4.71873 0.567139 9.49937C0.567139 14.2801 4.40765 18.1202 9.18872 18.1202C13.4995 18.1202 17.4184 14.9854 17.4184 9.49937C17.4184 8.98998 17.34 8.44135 17.2224 7.93196Z" fill="white"/>
</mask>
<g mask="url(#mask1_4_52)">
<path d="M-0.217041 14.5937V4.4054L6.44507 9.49954L-0.217041 14.5937Z" fill="#FBBC05"/>
</g>
</g>
<mask id="mask2_4_52" style="mask-type:luminance" maskUnits="userSpaceOnUse" x="0" y="0" width="18" height="10">
<path d="M0.566284 0.87207H17.4175V9.50007H0.566284V0.87207Z" fill="white"/>
</mask>
<g mask="url(#mask2_4_52)">
<mask id="mask3_4_52" style="mask-type:luminance" maskUnits="userSpaceOnUse" x="0" y="0" width="18" height="19">
<path d="M17.2224 7.93227H9.18872V11.2631H13.813C13.3819 13.3791 11.5792 14.5939 9.18872 14.5939C6.36712 14.5939 4.09415 12.3211 4.09415 9.49967C4.09415 6.67831 6.36712 4.40553 9.18872 4.40553C10.4036 4.40553 11.5009 4.8366 12.363 5.54192L14.8711 3.03406C13.3427 1.70174 11.3833 0.878845 9.18872 0.878845C4.40765 0.878845 0.567139 4.71903 0.567139 9.49967C0.567139 14.2804 4.40765 18.1205 9.18872 18.1205C13.4995 18.1205 17.4184 14.9857 17.4184 9.49967C17.4184 8.99028 17.34 8.44166 17.2224 7.93227Z" fill="white"/>
</mask>
<g mask="url(#mask3_4_52)">
<path d="M-0.217041 4.40541L6.44507 9.49955L9.18829 7.10925L18.5936 5.58099V0.0949707H-0.217041V4.40541Z" fill="#EA4335"/>
</g>
</g>
<mask id="mask4_4_52" style="mask-type:luminance" maskUnits="userSpaceOnUse" x="0" y="0" width="18" height="19">
<path d="M0.566284 0.87207H17.4175V18.1201H0.566284V0.87207Z" fill="white"/>
</mask>
<g mask="url(#mask4_4_52)">
<mask id="mask5_4_52" style="mask-type:luminance" maskUnits="userSpaceOnUse" x="0" y="0" width="18" height="19">
<path d="M17.2224 7.93227H9.18872V11.2631H13.813C13.3819 13.3791 11.5792 14.5939 9.18872 14.5939C6.36712 14.5939 4.09415 12.3211 4.09415 9.49967C4.09415 6.67831 6.36712 4.40553 9.18872 4.40553C10.4036 4.40553 11.5009 4.8366 12.363 5.54192L14.8711 3.03406C13.3427 1.70174 11.3833 0.878845 9.18872 0.878845C4.40765 0.878845 0.567139 4.71903 0.567139 9.49967C0.567139 14.2804 4.40765 18.1205 9.18872 18.1205C13.4995 18.1205 17.4184 14.9857 17.4184 9.49967C17.4184 8.99028 17.34 8.44166 17.2224 7.93227Z" fill="white"/>
</mask>
<g mask="url(#mask5_4_52)">
<path d="M-0.217041 14.5937L11.5396 5.58099L14.6355 5.97286L18.5936 0.0949707V18.9042H-0.217041V14.5937Z" fill="#34A853"/>
</g>
</g>
<mask id="mask6_4_52" style="mask-type:luminance" maskUnits="userSpaceOnUse" x="4" y="4" width="14" height="15">
<path d="M4.87183 4.40009H17.4179V18.1201H4.87183V4.40009Z" fill="white"/>
</mask>
<g mask="url(#mask6_4_52)">
<mask id="mask7_4_52" style="mask-type:luminance" maskUnits="userSpaceOnUse" x="0" y="0" width="18" height="19">
<path d="M17.221 7.93221H9.18725V11.263H13.8116C13.3805 13.379 11.5778 14.5938 9.18725 14.5938C6.36566 14.5938 4.09269 12.321 4.09269 9.49961C4.09269 6.67825 6.36566 4.40547 9.18725 4.40547C10.4021 4.40547 11.4994 4.83653 12.3615 5.54186L14.8696 3.034C13.3413 1.70167 11.3818 0.878784 9.18725 0.878784C4.40619 0.878784 0.565674 4.71897 0.565674 9.49961C0.565674 14.2803 4.40619 18.1205 9.18725 18.1205C13.498 18.1205 17.4169 14.9856 17.4169 9.49961C17.4169 8.99022 17.3385 8.4416 17.221 7.93221Z" fill="white"/>
</mask>
<g mask="url(#mask7_4_52)">
<path d="M18.5928 18.9043L6.44426 9.49966L4.87671 8.32413L18.5928 4.40552V18.9043Z" fill="#4285F4"/>
</g>
</g>
</svg>
